<svg id="visual" viewBox="0 0 370 960" width="370" height="960" xmlns="http://www.w3.org/2000/svg" xmlns:xlink="http://www.w3.org/1999/xlink" version="1.1"><rect width="370" height="960" fill="#fff"></rect><g><g transform="translate(293 655)"><path d="M0 -114.5L99.1 -57.2L99.1 57.2L0 114.5L-99.1 57.2L-99.1 -57.2Z" fill="#FFC65D"></path></g><g transform="translate(10 24)"><path d="M0 -88L76.2 -44L76.2 44L0 88L-76.2 44L-76.2 -44Z" fill="#FFC65D"></path></g><g transform="translate(320 224)"><path d="M0 -17L14.7 -8.5L14.7 8.5L0 17L-14.7 8.5L-14.7 -8.5Z" fill="#FFC65D"></path></g><g transform="translate(127 448)"><path d="M0 -15L13 -7.5L13 7.5L0 15L-13 7.5L-13 -7.5Z" fill="#FFC65D"></path></g></g></svg>