<svg id="visual" viewBox="0 0 960 540" width="960" height="540" xmlns="http://www.w3.org/2000/svg" xmlns:xlink="http://www.w3.org/1999/xlink" version="1.1"><rect width="960" height="540" fill="#EFEFEF"></rect><g><g transform="translate(171 314)"><path d="M0 -138.3L119.8 -69.2L119.8 69.2L0 138.3L-119.8 69.2L-119.8 -69.2Z" fill="#FFC65D"></path></g><g transform="translate(671 396)"><path d="M0 -95L82.3 -47.5L82.3 47.5L0 95L-82.3 47.5L-82.3 -47.5Z" fill="#FFC65D"></path></g><g transform="translate(811 141)"><path d="M0 -61L52.8 -30.5L52.8 30.5L0 61L-52.8 30.5L-52.8 -30.5Z" fill="#FFC65D"></path></g><g transform="translate(445 180)"><path d="M0 -18L15.6 -9L15.6 9L0 18L-15.6 9L-15.6 -9Z" fill="#FFC65D"></path></g></g></svg>